<?xml version="1.0" standalone="no"?>
<!DOCTYPE svg PUBLIC "-//W3C//DTD SVG 20010904//EN"
 "http://www.w3.org/TR/2001/REC-SVG-20010904/DTD/svg10.dtd">
<svg version="1.0" xmlns="http://www.w3.org/2000/svg"
 width="310.000000pt" height="310.000000pt" viewBox="0 0 310.000000 310.000000"
 preserveAspectRatio="xMidYMid meet">
<metadata>
Created by potrace 1.14, written by Peter Selinger 2001-2017
</metadata>
<g transform="translate(0.000000,310.000000) scale(0.100000,-0.100000)"
fill="#000000" stroke="none">
<path d="M0 1550 l0 -1550 1550 0 1550 0 0 1550 0 1550 -1550 0 -1550 0 0
-1550z m1855 1386 c283 -83 512 -272 644 -534 52 -104 101 -278 101 -363 l0
-39 -287 2 -287 3 -12 48 c-21 81 -64 154 -128 216 -113 108 -252 159 -456
168 -310 14 -568 -106 -664 -307 -27 -56 -31 -76 -31 -145 0 -71 4 -89 33
-148 40 -80 105 -141 212 -196 126 -65 215 -91 571 -165 331 -70 466 -122 561
-217 61 -61 90 -124 96 -209 26 -368 -443 -632 -872 -489 -144 48 -298 174
-364 297 l-33 62 -110 0 c-80 0 -109 -3 -109 -12 0 -7 20 -54 45 -104 113
-227 335 -403 590 -466 105 -26 310 -31 410 -9 405 86 656 355 655 703 -1 259
-123 432 -373 529 -106 40 -250 77 -527 134 -344 72 -465 116 -535 198 -60 70
-58 133 8 204 38 41 102 83 127 83 6 0 10 -37 10 -99 l0 -98 73 -21 c110 -32
172 -47 425 -101 475 -103 637 -168 788 -317 137 -135 190 -294 182 -547 -4
-127 -8 -152 -36 -235 -50 -145 -112 -241 -224 -348 -124 -119 -273 -200 -467
-252 -87 -23 -114 -26 -286 -26 -177 -1 -197 1 -286 26 -254 71 -492 236 -628
436 -90 133 -155 301 -168 435 l-6 67 290 0 291 0 6 -32 c22 -116 123 -240
245 -301 96 -48 164 -61 291 -54 199 10 341 91 390 222 21 55 15 131 -12 173
-51 77 -165 119 -513 192 -132 28 -283 62 -335 76 -343 93 -527 242 -586 474
-23 91 -15 244 17 320 86 206 279 357 544 426 84 22 123 26 245 27 161 1 273
-16 392 -60 147 -55 298 -182 366 -311 l33 -62 114 0 114 0 -14 40 c-8 23 -33
76 -55 119 -159 305 -491 481 -915 484 -143 1 -239 -15 -382 -63 -78 -26 -83
-26 -83 -9 0 36 133 116 263 159 119 39 209 49 392 46 148 -3 182 -7 260 -30z"/>
</g>
</svg>
