<?xml version="1.0" standalone="no"?>
<!DOCTYPE svg PUBLIC "-//W3C//DTD SVG 20010904//EN"
 "http://www.w3.org/TR/2001/REC-SVG-20010904/DTD/svg10.dtd">
<svg version="1.0" xmlns="http://www.w3.org/2000/svg"
 width="560.000000pt" height="560.000000pt" viewBox="0 0 560.000000 560.000000"
 preserveAspectRatio="xMidYMid meet">
<metadata>
Created by potrace 1.14, written by Peter Selinger 2001-2017
</metadata>
<g transform="translate(0.000000,560.000000) scale(0.100000,-0.100000)"
fill="#000000" stroke="none">
<path d="M0 2800 l0 -2800 2800 0 2800 0 0 2800 0 2800 -2800 0 -2800 0 0
-2800z m3135 2285 c150 -32 257 -113 316 -239 57 -122 59 -141 59 -834 l0
-632 -282 2 -283 3 -5 580 c-5 626 -4 611 -60 640 -45 23 -206 21 -246 -4 -65
-39 -65 -48 -62 -616 l3 -510 26 -56 c15 -31 43 -75 64 -97 20 -23 164 -145
320 -272 157 -127 311 -260 344 -296 70 -77 124 -174 153 -281 22 -76 22 -93
26 -778 3 -771 2 -794 -58 -921 -55 -113 -176 -201 -325 -235 -44 -10 -146
-14 -380 -14 -273 0 -330 3 -389 18 -179 46 -288 151 -342 333 -16 54 -18 123
-21 761 l-4 703 285 0 286 0 2 -619 c3 -611 3 -620 24 -648 32 -44 70 -57 159
-58 93 0 128 14 162 64 l24 35 -3 560 -3 561 -27 56 c-36 73 -103 136 -427
398 -280 228 -347 296 -406 413 -70 140 -70 144 -70 898 0 623 1 680 18 739
49 173 149 281 307 330 93 29 85 28 430 29 243 1 331 -2 385 -13z"/>
</g>
</svg>
