<svg fill="currentColor" width="162" height="48" viewBox="0 0 162 48" xmlns="http://www.w3.org/2000/svg">
    <path d="M15.128 29.594v11.098c0 4.168-1.897 6.276-5.852 6.276H5.81C1.913 47.03.026 44.921.026 40.753V27.807h6.148v12.158c-.031.17-.023.344.023.51.046.165.129.315.241.437.113.122.251.212.403.262.152.05.313.058.47.024h.556a.893.893 0 0 0 .47-.024c.151-.05.29-.14.402-.262.113-.122.196-.272.242-.438.046-.165.054-.34.022-.509v-9.248a3.736 3.736 0 0 0-.309-1.842 3.402 3.402 0 0 0-1.145-1.4l-4.545-3.959A7.422 7.422 0 0 1 .66 20.517a8.112 8.112 0 0 1-.635-3.87V6.277C.026 2.108 1.97 0 5.867 0h3.41c3.897 0 5.783 2.109 5.783 6.276v11.961H8.856V6.93c0-.79-.25-1.233-1.034-1.233h-.557c-.727 0-1.034.394-1.034 1.233v8.632c-.056.633.051 1.27.31 1.84.26.571.66 1.052 1.156 1.39l4.545 3.97c2.216 1.9 2.886 3.527 2.886 6.832zm19.125 11.098c0 4.217-1.886 6.338-5.784 6.338h-3.84c-3.83 0-5.785-2.121-5.785-6.338V.394h6.273v39.57c-.031.17-.023.344.023.51.046.164.129.315.241.437.113.121.25.212.403.261.152.05.313.059.47.025h.67c.784 0 1.136-.394 1.136-1.233V.394h6.273l-.08 40.298zm9.988 5.943h-6.26V.395h9.09c3.898 0 5.84 2.12 5.84 6.276v16.314c0 4.233-1.946 6.346-5.84 6.338h-2.83v17.312zm1.341-40.47h-1.34V23.43h1.34c.727 0 1.137-.395 1.137-1.234V7.398a1.147 1.147 0 0 0-.03-.506 1.08 1.08 0 0 0-.24-.433.967.967 0 0 0-.4-.263.904.904 0 0 0-.467-.03zM68.14.395v6.017h-5.364V20.21h5.114v6.08h-5.114v14.266h5.432v6.08H56.514V.393h11.625zm18.965 28.73v17.51h-6.205V29.2c0-.801-.363-1.233-1.136-1.233h-1.545v18.67h-6.262V.393h9.307c3.898 0 5.784 2.121 5.784 6.277v13.058c0 2.898-.977 4.353-2.682 5.019 1.955.616 2.739 1.936 2.739 4.377zm-7.42-22.849h-1.466v16.03h1.465c.155.023.311.006.459-.048.147-.054.28-.144.39-.263.11-.12.194-.265.243-.425.05-.16.065-.33.045-.497V7.51c.023-.838-.341-1.233-1.136-1.233zm20.34 40.36-4.261-27.129.363 13.478.125 13.675h-5.42V.394h6.397l3.932 25.303-.341-13.144-.125-12.159h5.42v46.241h-6.09zm19.897 0-.477-6.672h-4.023l-.42 6.671h-5.602l4.079-46.24h8.455l4.079 46.24h-6.091zm-4.068-12.615h3.159l-1.579-22.393-1.58 22.393zm28.602 6.67c0 4.218-1.886 6.339-5.784 6.339h-3.829c-3.841 0-5.784-2.121-5.784-6.338V.394h6.261v39.57c-.028.169-.019.342.028.506.048.164.131.313.242.434a.968.968 0 0 0 .4.262.903.903 0 0 0 .466.031h.671c.784 0 1.136-.394 1.136-1.233V.394h6.272l-.079 40.298zm7.557 5.944V6.412h-3.83V.394H162v6.018h-3.773v40.223h-6.215z"  fill-rule="nonzero"/>
</svg>
